<?xml version="1.0" encoding="UTF-8" standalone="no"?>
<svg
   xmlns="http://www.w3.org/2000/svg"
   width="6px"
   height="6px"
   viewBox="0 0 32 32"
>
  <path
     id="text2464"
     d="M 0,29.804686 C 4.596355,25.208332 9.192709,20.611978 13.789064,16.015626 9.205731,11.432292 4.622397,6.848959 0.039064,2.265626 0.794272,1.510417 1.54948,0.755209 2.304688,0 c 4.583333,4.583333 9.166667,9.166667 13.75,13.75 C 20.63802,9.166667 25.221352,4.583333 29.804686,0 c 0.729166,0.742187 1.458334,1.484375 2.1875,2.226562 -4.583334,4.583333 -9.166666,9.166666 -13.749999,13.75 4.609373,4.609374 9.218749,9.21875 13.828123,13.828124 -0.742188,0.755208 -1.484374,1.510416 -2.226562,2.265624 C 25.234374,27.460936 20.625,22.85156 16.015626,18.242187 11.419272,22.83854 6.822918,27.434894 2.226564,32.031248 1.484376,31.28906 0.742188,30.546874 0,29.804686 Z"
     style="stroke-width:0.2" />
</svg>
